<svg width="156" height="37" viewBox="0 0 156 37" fill="none" xmlns="http://www.w3.org/2000/svg">
<line x1="1.5" y1="18.5312" x2="154.5" y2="18.5312" stroke="#D0D0D0"/>
<circle cx="3.5" cy="18.5" r="3.5" fill="#D0D0D0"/>
<circle cx="152.5" cy="18.5" r="3.5" fill="#D0D0D0"/>
<circle cx="78" cy="18.5" r="18" fill="#D23232"/>
<path d="M72.75 26.75H86.25" stroke="white" stroke-width="1.5" stroke-linecap="round" stroke-linejoin="round"/>
<path d="M68.5126 14H70.1251L72.0001 16.25H75.0001L73.8282 12.7344C73.7911 12.6217 73.7813 12.5019 73.7996 12.3847C73.8178 12.2675 73.8636 12.1563 73.9331 12.0602C74.0026 11.9642 74.094 11.886 74.1996 11.832C74.3052 11.7781 74.4221 11.75 74.5407 11.75H76.1251L80.2501 16.25H85.5001C86.2957 16.25 87.0588 16.5661 87.6214 17.1287C88.184 17.6913 88.5001 18.4544 88.5001 19.25V21.5H71.9813C71.337 21.499 70.7101 21.2906 70.1935 20.9057C69.6768 20.5207 69.2978 19.9796 69.1126 19.3625L67.7907 14.9656C67.757 14.8533 67.7501 14.7347 67.7705 14.6193C67.7909 14.5039 67.8381 14.3948 67.9083 14.3009C67.9785 14.207 68.0697 14.1309 68.1747 14.0786C68.2796 14.0264 68.3953 13.9994 68.5126 14V14Z" stroke="white" stroke-width="1.5" stroke-linecap="round" stroke-linejoin="round"/>
</svg>
